<?xml version="1.0" standalone="no"?>
<!DOCTYPE svg PUBLIC "-//W3C//DTD SVG 20010904//EN"
 "http://www.w3.org/TR/2001/REC-SVG-20010904/DTD/svg10.dtd">
<svg version="1.0" xmlns="http://www.w3.org/2000/svg"
 width="1024.000000pt" height="1024.000000pt" viewBox="0 0 1024.000000 1024.000000"
 preserveAspectRatio="xMidYMid meet">

<g transform="translate(0.000000,1024.000000) scale(0.100000,-0.100000)"
fill="#000000" stroke="none">
<path d="M1980 9499 c-214 -27 -446 -117 -630 -243 -99 -67 -258 -221 -332
-320 -156 -208 -249 -443 -278 -697 -8 -66 -10 -1018 -8 -3184 l3 -3090 22
-90 c70 -300 198 -530 411 -737 222 -216 485 -348 782 -393 144 -22 6198 -22
6340 0 308 47 582 187 805 410 185 186 315 421 383 694 l27 106 3 3095 c2
2235 0 3121 -8 3190 -73 616 -512 1098 -1135 1243 l-90 22 -3115 1 c-1713 1
-3144 -2 -3180 -7z m3144 -1253 c-272 -101 -481 -319 -567 -592 -105 -333 -18
-691 228 -940 250 -253 610 -344 946 -238 165 51 344 168 434 283 21 28 41 49
43 47 7 -7 -51 -141 -90 -208 -83 -145 -203 -272 -347 -370 -546 -372 -1287
-189 -1609 395 -158 287 -178 649 -53 954 167 406 574 690 991 692 l85 0 -61
-23z m20 -2695 c3 -5 22 -125 42 -267 24 -176 40 -261 49 -267 76 -43 119
-120 113 -204 -2 -32 -6 -64 -9 -71 -3 -9 62 -45 201 -111 410 -196 769 -411
1030 -619 135 -108 333 -311 412 -422 174 -244 246 -470 235 -735 -7 -161 -38
-285 -111 -449 -14 -32 -26 -60 -26 -61 0 -1 33 -5 74 -8 106 -8 157 -40 191
-119 36 -87 -2 -188 -90 -236 -28 -16 -196 -17 -2100 -20 -1463 -2 -2085 1
-2123 9 -116 24 -181 140 -137 247 34 80 86 112 196 119 l77 6 -33 66 c-140
281 -150 626 -27 920 196 466 769 920 1709 1356 86 40 93 46 84 64 -6 11 -11
43 -11 72 0 67 30 131 79 166 20 15 39 29 43 33 4 3 23 119 42 259 19 139 40
259 47 267 13 16 35 18 43 5z"/>
</g>
</svg>
